HIERARCHY
ROOT Hips
{
	OFFSET -0.179506 -22.333345 2.821913
	CHANNELS 6 Xposition Yposition Zposition Zrotation Yrotation Xrotation 
	JOINT LeftUpLeg
	{
		OFFSET 6.951974 -9.140623 -0.681533
		CHANNELS 3 Zrotation Yrotation Xrotation
		JOINT LeftLeg
		{
			OFFSET 3.427654 -37.519855 -0.449580
			CHANNELS 3 Zrotation Yrotation Xrotation
			JOINT LeftFoot
			{
				OFFSET -1.359570 -39.796059 -4.369333
				CHANNELS 3 Zrotation Yrotation Xrotation
				JOINT LeftToe
				{
					OFFSET 2.635814 -5.579078 11.928840
					CHANNELS 3 Zrotation Yrotation Xrotation
					End Site
					{
						OFFSET 0.000000 0.000000 0.000000
					}
				}
			}
		}
	}
	JOINT RightUpLeg
	{
		OFFSET -6.767048 -9.052170 -0.431982
		CHANNELS 3 Zrotation Yrotation Xrotation
		JOINT RightLeg
		{
			OFFSET -3.829005 -38.256897 -0.885003
			CHANNELS 3 Zrotation Yrotation Xrotation
			JOINT RightFoot
			{
				OFFSET 1.577377 -39.841461 -4.231180
				CHANNELS 3 Zrotation Yrotation Xrotation
				JOINT RightToe
				{
					OFFSET -2.537174 -4.814398 12.334795
					CHANNELS 3 Zrotation Yrotation Xrotation
					End Site
					{
						OFFSET 0.000000 0.000000 0.000000
					}
				}
			}
		}
	}
	JOINT Spine
	{
		OFFSET -0.253288 10.896323 -2.669631
		CHANNELS 3 Zrotation Yrotation Xrotation
		JOINT Spine1
		{
			OFFSET 0.548704 13.518043 0.109247
			CHANNELS 3 Zrotation Yrotation Xrotation
			JOINT Spine2
			{
				OFFSET 0.145701 5.292222 2.542457
				CHANNELS 3 Zrotation Yrotation Xrotation
				JOINT Neck
				{
					OFFSET -0.277840 21.387037 -4.285703
					CHANNELS 3 Zrotation Yrotation Xrotation
					JOINT Head
					{
						OFFSET 0.515184 6.496960 5.134897
						CHANNELS 3 Zrotation Yrotation Xrotation
						End Site
						{
							OFFSET 0.000000 0.000000 0.000000
						}
					}
				}
				JOINT LeftShoulder
				{
					OFFSET 7.884473 12.174932 -3.408961
					CHANNELS 3 Zrotation Yrotation Xrotation
					JOINT LeftArm
					{
						OFFSET 9.097692 3.046888 -0.886815
						CHANNELS 3 Zrotation Yrotation Xrotation
						JOINT LeftForeArm
						{
							OFFSET 25.961220 -1.277207 -2.745643
							CHANNELS 3 Zrotation Yrotation Xrotation
							JOINT LeftHand
							{
								OFFSET 24.923361 0.898606 -0.117091
								CHANNELS 3 Zrotation Yrotation Xrotation
								End Site
								{
									OFFSET 0.000000 0.000000 0.000000
								}
							}
						}
					}
				}
				JOINT RightShoulder
				{
					OFFSET -8.175920 11.883285 -3.861528
					CHANNELS 3 Zrotation Yrotation Xrotation
					JOINT RightArm
					{
						OFFSET -9.601238 3.255117 -0.914307
						CHANNELS 3 Zrotation Yrotation Xrotation
						JOINT RightForeArm
						{
							OFFSET -25.374195 -1.332924 -2.140099
							CHANNELS 3 Zrotation Yrotation Xrotation
							JOINT RightHand
							{
								OFFSET -25.529810 0.777228 -0.555919
								CHANNELS 3 Zrotation Yrotation Xrotation
								End Site
								{
									OFFSET 0.000000 0.000000 0.000000
								}
							}
						}
					}
				}
			}
		}
	}
}
MOTION
Frames: 7
Frame Time: 0.033333
-130.856735 -5.981679 92.210457 107.807652 -0.829447 82.972879 20.020821 12.282269 -9.103835 -0.961240 16.316650 23.594261 -8.651799 0.705858 -6.728669 nan nan nan -18.293515 -7.442447 0.507622 -0.293179 -4.949945 24.394861 1.263438 3.294079 -23.413171 nan nan nan 3.770156 0.907670 9.702248 -0.259587 -1.478754 11.794601 0.683360 0.392993 -5.512089 -3.198376 21.209540 9.807042 -6.786251 29.424655 15.596734 -23.576810 -6.157429 5.329349 -59.520571 -12.330527 -6.006497 72.280424 -47.597047 -55.471392 22.447507 -28.303339 -32.134334 14.101190 13.790434 5.339564 65.083032 19.742598 23.447466 156.503162 76.468510 176.837742 3.539906 28.110936 -35.344485 
-130.850342 -5.978462 92.208229 107.811374 -0.828600 82.962079 20.032247 12.277284 -9.091436 -0.969676 16.289915 23.600475 -8.655516 0.724332 -6.728542 nan nan nan -18.294050 -7.442000 0.532777 -0.285644 -4.938698 24.380460 1.281337 3.275923 -23.413425 nan nan nan 3.782600 0.899358 9.739970 -0.274777 -1.472035 11.734225 0.679625 0.388201 -5.473643 -3.194146 21.200891 9.767729 -6.761821 29.430524 15.649645 -23.573435 -6.153123 5.327908 -59.526676 -12.342743 -5.993767 72.255271 -47.596993 -55.379853 22.509323 -28.274118 -32.198562 14.087529 13.785260 5.324396 65.095112 19.743387 23.449673 156.460904 76.480582 176.832352 3.505713 28.116873 -35.384279 
-130.846207 -5.963062 92.204086 107.852629 -0.818102 82.880608 20.059932 12.292280 -9.065778 -1.031181 16.126138 23.663679 -8.604874 0.817664 -6.737745 nan nan nan -18.314317 -7.476337 0.662791 -0.218527 -4.841303 24.331866 1.314450 3.145554 -23.473552 nan nan nan 3.851167 0.884799 9.951296 -0.326372 -1.439795 11.452875 0.669825 0.337694 -5.316809 -3.158031 21.148711 9.565235 -6.630002 29.445872 15.932037 -23.551418 -6.127917 5.299570 -59.573768 -12.426458 -5.894797 72.098385 -47.612370 -54.762147 23.034213 -28.017067 -32.804288 14.031183 13.735178 5.223809 65.116101 19.737733 23.454174 156.130231 76.533907 176.783075 3.404733 28.105813 -35.563125 
-130.832138 -5.954887 92.192467 107.891928 -0.797535 82.914671 20.072698 12.317253 -9.113201 -1.122263 15.957840 23.611071 -8.360548 0.909361 -6.680567 nan nan nan -18.294265 -7.539158 0.650011 -0.148240 -4.674313 24.318069 1.345033 2.931713 -23.470529 nan nan nan 3.808193 1.076763 9.977745 -0.218438 -1.266175 11.135489 0.812399 0.073929 -5.077174 -3.211914 20.951816 9.468221 -6.604682 29.544734 16.078001 -23.636325 -6.175032 5.461975 -59.657035 -12.616229 -5.739431 72.051644 -47.656174 -54.407601 24.173341 -27.607505 -33.581589 13.872507 13.601814 5.154389 65.123824 19.706270 23.437263 155.992875 76.481254 176.856829 3.247636 28.030926 -35.707027 
-130.807800 -5.932464 92.198997 107.949543 -0.715112 83.005636 20.114459 12.303392 -9.221930 -1.158598 15.865347 23.591602 -8.170121 0.986029 -6.691661 nan nan nan -18.203596 -7.597796 0.631682 -0.079619 -4.572834 24.244856 1.409623 2.775727 -23.425441 nan nan nan 3.657678 1.728495 9.932305 0.157131 -0.799604 10.598546 1.255954 -0.651212 -4.732476 -3.358950 20.491424 9.676473 -6.711073 29.678792 16.001526 -24.092393 -6.422943 5.996218 -59.702535 -13.002451 -5.687404 72.084958 -47.592511 -54.365055 24.499421 -27.512713 -33.666694 13.592124 13.260799 5.099749 64.905760 19.544004 23.236095 156.059689 76.268291 176.867453 2.850250 28.012331 -36.205877 
-130.780106 -5.876884 92.248779 108.120927 -0.414058 83.318736 20.235211 12.403206 -9.678329 -1.126576 15.574504 23.705848 -8.172025 1.093044 -6.750057 nan nan nan -17.811458 -7.773786 0.494761 0.018181 -4.344248 24.045257 1.704431 2.461825 -23.292821 nan nan nan 3.168084 3.756769 10.158832 1.306235 0.763698 8.119598 2.680455 -3.123269 -3.375724 -3.935265 19.010154 10.404699 -7.170151 30.153743 15.656756 -25.695892 -7.037044 7.667003 -59.720482 -14.236644 -5.731371 72.099293 -47.286575 -53.891681 24.220918 -27.734283 -33.484075 12.760347 12.002963 4.723363 64.149779 18.990029 22.677351 155.378589 75.507712 176.028873 2.145482 28.138054 -38.060437 
-130.761978 -5.846771 92.262489 108.193736 -0.336890 83.386659 20.252698 12.487409 -9.817254 -1.098691 15.451616 23.862593 -8.359402 1.073573 -6.832951 nan nan nan -17.720424 -7.870036 0.509188 0.022927 -4.277982 23.980903 1.755356 2.418380 -23.319852 nan nan nan 3.040487 4.228039 10.220800 1.559618 1.122296 7.484970 3.036542 -3.722154 -3.049974 -4.171999 18.661829 10.571316 -7.255008 30.283730 15.494647 -26.120755 -7.192327 8.053523 -59.694917 -14.483326 -5.764828 72.020444 -47.272904 -53.671040 24.327506 -27.728451 -33.545335 12.600569 11.735906 4.644328 63.861469 18.844295 22.435929 155.234379 75.307967 175.780399 1.886024 28.141398 -38.834254 
